<svg width="24" height="24" viewBox="0 0 24 24" fill="none" xmlns="http://www.w3.org/2000/svg">
<g clip-path="url(#clip0_16_53)">
<path d="M19.6364 0H4.36364C1.94595 0 0 1.94595 0 4.30467V19.2826C0 21.6413 1.94595 23.5872 4.36364 23.5872H19.6364C22.0541 23.5872 24 21.6413 24 19.2826V4.30467C24 1.94595 22.0541 0 19.6364 0ZM15.9214 5.89681C17.6904 5.89681 19.1646 7.31204 19.1646 9.08108C19.1646 9.61179 19.0467 10.1425 18.8108 10.6142C18.398 10.3194 17.9263 10.0246 17.4545 9.84767C17.5725 9.61179 17.6314 9.31695 17.6314 9.08108C17.6314 8.19656 16.8649 7.42998 15.9803 7.42998C15.0369 7.42998 14.3292 8.19656 14.3292 9.08108C14.3292 9.37592 14.3882 9.61179 14.5061 9.84767C14.0344 10.0246 13.5627 10.2604 13.1499 10.6142C12.855 10.1425 12.7961 9.61179 12.7961 9.08108C12.7371 7.31204 14.1523 5.89681 15.9214 5.89681ZM8.07862 17.6904C6.30958 17.6904 4.83538 16.2752 4.83538 14.5061H6.36855C6.36855 15.3907 7.13513 16.1572 8.01966 16.1572C8.90418 16.1572 9.67076 15.3907 9.67076 14.5061H11.2039C11.3219 16.2752 9.84767 17.6904 8.07862 17.6904ZM8.07862 13.2678C6.01474 13.2678 4.36364 11.6167 4.36364 9.61179C4.36364 7.60688 6.01474 5.89681 8.07862 5.89681C10.1425 5.89681 11.8526 7.54791 11.8526 9.61179C11.8526 11.6167 10.1425 13.2678 8.07862 13.2678ZM15.9214 17.6904C13.8575 17.6904 12.1474 16.0393 12.1474 14.0344C12.1474 11.9705 13.7985 10.3194 15.9214 10.3194C17.9853 10.3194 19.6364 11.9705 19.6364 14.0344C19.6953 16.0393 17.9853 17.6904 15.9214 17.6904ZM18.1622 13.9754C18.1622 15.2138 17.1597 16.1572 15.9214 16.1572C14.683 16.1572 13.6806 15.1548 13.6806 13.9754C13.6806 12.7371 14.683 11.7936 15.9214 11.7936C17.1597 11.8526 18.1622 12.7961 18.1622 13.9754ZM10.2604 9.61179C10.2604 10.8501 9.25798 11.7936 8.01966 11.7936C6.78133 11.7936 5.77887 10.7912 5.77887 9.61179C5.77887 8.37346 6.78133 7.42998 8.01966 7.42998C9.31695 7.42998 10.2604 8.37346 10.2604 9.61179Z" fill="#D9B432"/>
</g>
<defs>
<clipPath id="clip0_16_53">
<rect width="24" height="23.5872" fill="white"/>
</clipPath>
</defs>
</svg>
