<svg width="24" height="23" viewBox="0 0 24 23" fill="none" xmlns="http://www.w3.org/2000/svg">
<g clip-path="url(#clip0_16_23)">
<path d="M22.7835 0.0236282L13.4369 6.96516L15.1657 2.86962L22.7835 0.0236282Z" fill="#E2761B" stroke="#E2761B" stroke-linecap="round" stroke-linejoin="round"/>
<path d="M1.20702 0.0236282L10.4785 7.03086L8.8343 2.86962L1.20702 0.0236282Z" fill="#E4761B" stroke="#E4761B" stroke-linecap="round" stroke-linejoin="round"/>
<path d="M19.4205 16.1142L16.9313 19.9281L22.2575 21.3931L23.7887 16.1988L19.4205 16.1142Z" fill="#E4761B" stroke="#E4761B" stroke-linecap="round" stroke-linejoin="round"/>
<path d="M0.220703 16.1988L1.74247 21.3931L7.06866 19.9281L4.57948 16.1142L0.220703 16.1988Z" fill="#E4761B" stroke="#E4761B" stroke-linecap="round" stroke-linejoin="round"/>
<path d="M6.76809 9.67032L5.28366 11.9156L10.572 12.1505L10.3844 6.46752L6.76809 9.67032Z" fill="#E4761B" stroke="#E4761B" stroke-linecap="round" stroke-linejoin="round"/>
<path d="M17.2225 9.67032L13.5593 6.40183L13.4369 12.1505L18.7163 11.9156L17.2225 9.67032Z" fill="#E4761B" stroke="#E4761B" stroke-linecap="round" stroke-linejoin="round"/>
<path d="M7.06866 19.9281L10.2436 18.378L7.50062 16.2361L7.06866 19.9281Z" fill="#E4761B" stroke="#E4761B" stroke-linecap="round" stroke-linejoin="round"/>
<path d="M13.747 18.378L16.9313 19.9281L16.4899 16.2361L13.747 18.378Z" fill="#E4761B" stroke="#E4761B" stroke-linecap="round" stroke-linejoin="round"/>
<path d="M16.9313 19.9281L13.747 18.378L14.0007 20.4541L13.9724 21.3275L16.9313 19.9281Z" fill="#D7C1B3" stroke="#D7C1B3" stroke-linecap="round" stroke-linejoin="round"/>
<path d="M7.06866 19.9281L10.0276 21.3275L10.0087 20.4541L10.2436 18.378L7.06866 19.9281Z" fill="#D7C1B3" stroke="#D7C1B3" stroke-linecap="round" stroke-linejoin="round"/>
<path d="M10.0744 14.8651L7.42548 14.0853L9.29461 13.2304L10.0744 14.8651Z" fill="#233447" stroke="#233447" stroke-linecap="round" stroke-linejoin="round"/>
<path d="M13.9162 14.8651L14.6959 13.2304L16.5745 14.0853L13.9162 14.8651Z" fill="#233447" stroke="#233447" stroke-linecap="round" stroke-linejoin="round"/>
<path d="M7.06866 19.9281L7.51952 16.1142L4.57948 16.1988L7.06866 19.9281Z" fill="#CD6116" stroke="#CD6116" stroke-linecap="round" stroke-linejoin="round"/>
<path d="M16.4805 16.1142L16.9313 19.9281L19.4205 16.1988L16.4805 16.1142Z" fill="#CD6116" stroke="#CD6116" stroke-linecap="round" stroke-linejoin="round"/>
<path d="M18.7163 11.9156L13.4369 12.1505L13.9256 14.8651L14.7054 13.2304L16.584 14.0853L18.7163 11.9156Z" fill="#CD6116" stroke="#CD6116" stroke-linecap="round" stroke-linejoin="round"/>
<path d="M7.42548 14.0853L9.30406 13.2304L10.0744 14.8651L10.572 12.1505L5.28366 11.9156L7.42548 14.0853Z" fill="#CD6116" stroke="#CD6116" stroke-linecap="round" stroke-linejoin="round"/>
<path d="M5.28366 11.9156L7.50062 16.2361L7.42548 14.0853L5.28366 11.9156Z" fill="#E4751F" stroke="#E4751F" stroke-linecap="round" stroke-linejoin="round"/>
<path d="M16.584 14.0853L16.4899 16.2361L18.7163 11.9156L16.584 14.0853Z" fill="#E4751F" stroke="#E4751F" stroke-linecap="round" stroke-linejoin="round"/>
<path d="M10.572 12.1505L10.0744 14.8651L10.6944 18.0679L10.8353 13.8505L10.572 12.1505Z" fill="#E4751F" stroke="#E4751F" stroke-linecap="round" stroke-linejoin="round"/>
<path d="M13.4369 12.1505L13.1836 13.841L13.2961 18.0679L13.9256 14.8651L13.4369 12.1505Z" fill="#E4751F" stroke="#E4751F" stroke-linecap="round" stroke-linejoin="round"/>
<path d="M13.9256 14.8651L13.2961 18.0679L13.747 18.378L16.4899 16.2361L16.584 14.0853L13.9256 14.8651Z" fill="#F6851B" stroke="#F6851B" stroke-linecap="round" stroke-linejoin="round"/>
<path d="M7.42548 14.0853L7.50062 16.2361L10.2436 18.378L10.6944 18.0679L10.0744 14.8651L7.42548 14.0853Z" fill="#F6851B" stroke="#F6851B" stroke-linecap="round" stroke-linejoin="round"/>
<path d="M13.9724 21.3275L14.0007 20.4541L13.7659 20.2471H10.2247L10.0087 20.4541L10.0276 21.3275L7.06866 19.9281L8.10177 20.7731L10.1963 22.2292H13.7942L15.8982 20.7731L16.9313 19.9281L13.9724 21.3275Z" fill="#C0AD9E" stroke="#C0AD9E" stroke-linecap="round" stroke-linejoin="round"/>
<path d="M13.747 18.378L13.2961 18.0679H10.6944L10.2436 18.378L10.0087 20.4541L10.2247 20.2471H13.7659L14.0007 20.4541L13.747 18.378Z" fill="#161616" stroke="#161616" stroke-linecap="round" stroke-linejoin="round"/>
<path d="M23.1782 7.41602L23.9764 3.58372L22.7835 0.0236282L13.747 6.73028L17.2225 9.67032L22.1351 11.1075L23.2249 9.83951L22.7552 9.5016L23.5066 8.81586L22.9244 8.365L23.6758 7.79174L23.1782 7.41602Z" fill="#763D16" stroke="#763D16" stroke-linecap="round" stroke-linejoin="round"/>
<path d="M0.0236282 3.58372L0.821848 7.41602L0.314749 7.79174L1.06618 8.365L0.493392 8.81586L1.24482 9.5016L0.775061 9.83951L1.85542 11.1075L6.76809 9.67032L10.2436 6.73028L1.20702 0.0236282L0.0236282 3.58372Z" fill="#763D16" stroke="#763D16" stroke-linecap="round" stroke-linejoin="round"/>
<path d="M22.1351 11.1075L17.2225 9.67032L18.7163 11.9156L16.4899 16.2361L19.4205 16.1988H23.7887L22.1351 11.1075Z" fill="#F6851B" stroke="#F6851B" stroke-linecap="round" stroke-linejoin="round"/>
<path d="M6.76809 9.67032L1.85542 11.1075L0.220703 16.1988H4.57948L7.50062 16.2361L5.28366 11.9156L6.76809 9.67032Z" fill="#F6851B" stroke="#F6851B" stroke-linecap="round" stroke-linejoin="round"/>
<path d="M13.4369 12.1505L13.747 6.73028L15.1752 2.86962H8.83429L10.2436 6.73028L10.572 12.1505L10.685 13.8599L10.6944 18.0679H13.2961L13.315 13.8599L13.4369 12.1505Z" fill="#F6851B" stroke="#F6851B" stroke-linecap="round" stroke-linejoin="round"/>
</g>
<defs>
<clipPath id="clip0_16_23">
<rect width="24" height="22.2528" fill="white"/>
</clipPath>
</defs>
</svg>
